<?xml version="1.0" standalone="no"?>
<!DOCTYPE svg PUBLIC "-//W3C//DTD SVG 20010904//EN"
 "http://www.w3.org/TR/2001/REC-SVG-20010904/DTD/svg10.dtd">
<svg version="1.0" xmlns="http://www.w3.org/2000/svg"
 width="1024.000000pt" height="1024.000000pt" viewBox="0 0 1024.000000 1024.000000"
 preserveAspectRatio="xMidYMid meet">

<g transform="translate(0.000000,1024.000000) scale(0.100000,-0.100000)"
fill="#000000" stroke="none">
<path d="M2720 7810 c-343 -48 -706 -212 -1005 -455 -211 -171 -463 -463 -601
-696 -209 -353 -329 -693 -391 -1105 -25 -170 -25 -572 1 -739 50 -327 156
-617 297 -805 218 -292 583 -463 902 -422 183 23 290 73 482 224 22 17 22 17
55 -70 277 -735 1016 -1261 2002 -1426 254 -43 358 -51 678 -50 230 0 341 4
450 18 927 113 1609 481 2013 1086 75 112 173 308 203 403 10 31 21 57 24 57
4 0 15 -10 26 -21 73 -81 267 -181 410 -211 292 -60 629 54 870 296 264 264
416 736 416 1291 0 466 -106 894 -327 1322 -133 258 -278 457 -485 663 -324
325 -692 531 -1111 622 -147 31 -417 32 -531 0 -178 -49 -274 -102 -399 -221
l-89 -83 -149 56 c-844 317 -1874 307 -2723 -27 l-86 -34 -54 54 c-178 182
-393 271 -673 278 -77 2 -169 0 -205 -5z m280 -211 c101 -12 228 -54 308 -100
31 -19 106 -82 165 -141 92 -92 113 -108 140 -108 18 0 84 20 147 44 532 202
944 275 1470 263 450 -10 844 -89 1244 -248 82 -32 163 -59 179 -59 25 0 49
20 146 118 102 105 126 123 201 159 129 62 200 77 370 77 209 0 363 -36 597
-142 1013 -457 1595 -1763 1293 -2900 -105 -393 -318 -642 -635 -742 -96 -30
-239 -37 -328 -16 -121 28 -211 80 -314 181 l-93 90 15 90 c33 198 29 663 -6
773 -21 64 -110 83 -160 33 -34 -34 -34 -33 -19 -265 23 -352 -32 -698 -152
-972 -246 -559 -780 -958 -1534 -1148 -116 -29 -340 -69 -494 -88 -139 -17
-659 -17 -805 0 -418 48 -754 139 -1061 286 -634 306 -1006 768 -1115 1386
-27 150 -35 412 -20 602 10 126 10 151 -3 176 -40 78 -158 65 -185 -21 -35
-113 -38 -506 -5 -741 l16 -118 -43 -45 c-140 -143 -324 -232 -482 -233 -128
0 -297 53 -419 132 -125 81 -251 223 -321 363 -69 139 -130 353 -163 575 -21
142 -24 470 -5 615 77 598 345 1158 745 1559 115 116 213 195 352 286 334 217
678 316 974 279z"/>
<path d="M3995 7100 c-210 -42 -365 -172 -409 -345 -41 -153 0 -292 119 -404
96 -91 211 -128 366 -117 324 22 541 241 499 502 -40 248 -308 417 -575 364z
m231 -214 c93 -43 166 -165 149 -249 -16 -75 -86 -144 -190 -183 -75 -28 -235
-27 -290 3 -197 106 -155 350 76 433 79 28 189 27 255 -4z"/>
<path d="M6045 7098 c-135 -26 -268 -129 -328 -255 -29 -62 -32 -76 -32 -168
0 -92 3 -105 32 -168 55 -116 171 -209 313 -251 30 -9 96 -19 146 -23 214 -14
383 74 470 245 27 53 29 66 29 167 0 104 -2 114 -33 177 -46 94 -122 167 -224
217 -127 62 -254 82 -373 59z m235 -210 c87 -29 171 -110 194 -185 29 -101
-21 -204 -122 -250 -49 -23 -63 -25 -151 -21 -74 4 -109 11 -152 31 -68 30
-137 90 -156 134 -42 101 17 231 129 287 68 34 166 36 258 4z"/>
<path d="M3472 5940 c-40 -10 -97 -32 -125 -47 -71 -38 -186 -154 -224 -228
-84 -161 -84 -350 0 -510 41 -77 145 -181 223 -222 240 -127 536 -56 693 168
158 225 141 497 -44 688 -103 106 -217 159 -365 167 -65 3 -103 0 -158 -16z
m345 -261 c73 -45 101 -145 63 -224 -54 -112 -195 -136 -282 -49 -89 89 -61
231 57 286 48 22 113 17 162 -13z"/>
<path d="M6534 5945 c-83 -18 -158 -55 -226 -112 -246 -205 -264 -563 -41
-795 218 -225 563 -224 777 2 103 110 147 222 148 375 0 149 -64 289 -180 397
-131 121 -308 170 -478 133z m87 -261 c36 -18 75 -66 89 -110 46 -138 -117
-272 -248 -205 -95 49 -127 142 -81 238 43 89 149 123 240 77z"/>
<path d="M4952 5505 c-189 -44 -358 -149 -534 -334 -306 -321 -559 -811 -624
-1211 -20 -119 -13 -283 15 -394 44 -166 162 -362 289 -477 371 -336 1045
-443 1608 -254 315 105 552 304 680 570 68 140 87 224 88 390 1 112 -4 161
-22 243 -81 361 -294 775 -555 1077 -173 201 -331 311 -532 371 -112 33 -311
42 -413 19z m318 -186 c25 -6 75 -24 113 -41 71 -33 73 -36 67 -108 -4 -56
-83 -196 -103 -183 -6 4 -7 1 -2 -6 9 -15 -43 -73 -58 -64 -6 3 -7 1 -3 -5 8
-13 -84 -103 -130 -128 -27 -15 -37 -16 -59 -6 -16 7 -23 17 -19 24 4 7 3 8
-5 4 -17 -11 -91 53 -155 132 -70 87 -116 179 -123 246 -5 52 -5 53 28 73 118
71 293 95 449 62z m430 -251 c163 -162 317 -382 436 -623 124 -253 184 -467
184 -660 0 -345 -254 -657 -649 -796 -191 -67 -303 -84 -551 -84 -186 1 -229
4 -320 23 -332 72 -574 215 -725 427 -163 228 -183 462 -70 802 103 309 309
650 535 887 l87 90 16 -54 c30 -103 124 -238 244 -350 88 -82 161 -120 232
-120 60 0 87 11 167 67 138 96 324 350 324 443 0 11 4 20 8 20 5 0 42 -33 82
-72z"/>
<path d="M5073 4350 c-25 -10 -39 -29 -166 -216 -101 -149 -114 -189 -78 -247
32 -53 58 -59 241 -65 211 -6 292 6 334 48 26 25 31 38 31 78 0 43 -9 60 -110
211 -65 97 -122 172 -140 182 -32 20 -76 23 -112 9z m121 -279 c31 -46 54 -86
51 -90 -9 -8 -257 -11 -253 -3 14 31 133 190 138 184 4 -4 32 -45 64 -91z"/>
</g>
</svg>
