<svg id="svg" version="1.1" xmlns="http://www.w3.org/2000/svg" xmlns:xlink="http://www.w3.org/1999/xlink" width="400" height="400" viewBox="0, 0, 400,400"><g id="svgg"><path id="path0" d="M105.859 95.121 C 51.672 102.563,12.876 173.150,32.435 228.711 C 42.723 257.935,72.256 269.207,92.930 251.801 C 94.904 250.139,94.892 250.133,96.072 253.516 C 110.759 295.598,169.155 320.054,228.906 309.146 C 266.105 302.355,294.943 281.044,304.716 253.125 C 305.205 251.729,305.646 250.529,305.696 250.459 C 305.746 250.390,306.990 251.310,308.460 252.504 C 326.759 267.365,354.228 259.105,365.475 235.360 C 378.817 207.191,374.334 165.807,354.748 136.328 C 329.242 97.940,282.993 82.524,260.794 105.012 L 258.112 107.729 255.973 106.783 C 224.805 92.999,177.460 93.160,144.157 107.164 L 142.807 107.732 139.609 104.745 C 130.787 96.504,119.410 93.260,105.859 95.121 M121.094 103.722 C 126.629 105.133,130.630 107.511,135.302 112.168 C 140.330 117.180,140.622 117.296,144.531 115.848 C 183.769 101.310,218.274 100.748,251.953 114.096 C 260.926 117.653,260.000 117.781,265.507 112.216 C 277.513 100.084,294.296 99.461,315.127 110.374 C 353.615 130.538,374.664 183.574,360.735 225.289 C 352.525 249.875,329.368 259.671,312.824 245.556 C 308.123 241.544,308.090 241.472,308.813 236.858 C 310.196 228.025,309.788 208.932,308.160 206.326 C 307.158 204.722,305.042 204.282,303.117 205.277 C 301.128 206.306,301.057 206.764,301.589 215.197 C 305.044 269.975,263.775 304.517,196.680 303.005 C 132.526 301.560,94.257 266.040,99.183 212.510 C 99.602 207.956,99.583 207.572,98.899 206.651 C 97.150 204.295,94.092 204.124,92.483 206.292 C 90.638 208.779,90.182 224.569,91.630 235.867 L 92.296 241.071 90.582 242.843 C 72.248 261.790,45.777 250.089,38.286 219.727 C 25.551 168.109,60.002 110.093,107.617 102.974 C 110.025 102.614,118.617 103.091,121.094 103.722 M155.520 122.868 C 140.229 126.186,134.273 142.331,144.793 151.946 C 154.507 160.824,174.451 155.971,177.968 143.873 C 181.641 131.238,169.462 119.842,155.520 122.868 M237.085 122.673 C 228.195 124.012,222.104 130.748,222.081 139.265 C 222.028 158.845,254.929 163.436,260.402 144.612 C 263.887 132.624,251.072 120.566,237.085 122.673 M164.703 130.674 C 171.107 133.285,172.910 141.054,168.094 145.292 C 160.396 152.069,147.254 148.827,147.269 140.156 C 147.282 133.140,157.336 127.671,164.703 130.674 M244.737 130.684 C 252.940 132.927,255.995 141.993,250.165 146.798 C 243.285 152.469,227.850 146.064,229.642 138.281 C 231.187 131.568,237.094 128.595,244.737 130.684 M137.500 167.567 C 120.320 170.732,113.654 191.214,125.795 203.529 C 138.961 216.883,161.827 207.083,161.781 188.107 C 161.750 175.358,149.850 165.292,137.500 167.567 M256.385 167.615 C 239.154 170.494,232.786 192.083,245.654 203.993 C 259.169 216.502,280.859 207.062,280.859 188.672 C 280.859 175.779,268.934 165.519,256.385 167.615 M147.947 177.554 C 153.786 179.993,153.786 187.975,147.947 190.415 C 142.708 192.604,136.976 187.496,138.679 182.154 C 139.950 178.166,144.275 176.019,147.947 177.554 M258.577 177.921 C 263.582 180.509,263.694 187.340,258.778 190.124 C 254.125 192.760,248.438 189.368,248.438 183.958 C 248.438 178.777,253.919 175.512,258.577 177.921 M195.508 184.654 C 171.081 188.032,142.502 233.769,148.632 259.670 C 154.352 283.833,183.489 297.779,214.908 291.391 C 246.949 284.877,260.189 260.747,248.340 230.459 C 236.298 199.676,215.743 181.856,195.508 184.654 M205.955 192.162 C 209.993 193.195,212.812 194.666,213.122 195.904 C 214.435 201.134,202.714 215.464,198.766 213.455 C 193.823 210.941,186.948 201.219,187.189 197.088 C 187.439 192.829,197.863 190.092,205.955 192.162 M225.985 205.477 C 243.835 226.372,251.219 250.536,244.058 264.621 C 236.827 278.843,221.479 286.498,200.195 286.498 C 170.035 286.498,150.126 269.197,154.106 246.446 C 156.563 232.397,165.772 215.080,177.067 203.264 C 181.045 199.103,181.065 199.093,181.393 201.074 C 182.598 208.330,194.031 219.931,199.965 219.918 C 206.038 219.905,217.806 207.799,218.999 200.338 L 219.237 198.850 221.248 200.569 C 222.355 201.514,224.486 203.723,225.985 205.477 M197.976 230.287 C 195.899 231.416,188.092 243.658,188.089 245.793 C 188.083 249.943,191.299 251.035,202.440 250.667 C 209.438 250.436,210.619 250.045,211.848 247.549 C 212.912 245.387,212.509 244.372,207.757 237.256 C 202.666 229.634,201.158 228.559,197.976 230.287 M202.907 240.861 C 204.316 242.924,205.469 244.682,205.469 244.767 C 205.469 244.852,203.096 244.922,200.195 244.922 C 197.295 244.922,194.922 244.822,194.922 244.699 C 194.922 244.419,200.007 237.109,200.202 237.109 C 200.281 237.109,201.499 238.797,202.907 240.861 " stroke="none" fill="#332316" fill-rule="evenodd"></path><path id="path1" d="M191.406 104.916 C 190.654 105.004,188.018 105.266,185.547 105.498 C 180.028 106.017,171.993 107.445,166.016 108.969 C 160.379 110.406,150.390 113.610,150.392 113.980 C 150.393 114.133,152.898 114.271,155.958 114.288 C 162.686 114.325,165.495 114.862,175.396 118.005 C 194.601 124.100,205.360 124.220,225.195 118.556 C 236.666 115.281,242.575 114.225,250.391 114.053 C 256.660 113.916,229.097 106.980,216.211 105.453 C 212.641 105.030,193.907 104.625,191.406 104.916 M86.133 110.078 C 44.309 131.935,22.988 192.714,43.112 232.715 C 45.220 236.905,44.930 236.785,47.996 234.737 C 59.943 226.760,63.449 209.938,56.022 196.229 C 52.521 189.766,54.556 184.065,61.785 180.083 C 73.823 173.452,79.149 157.833,73.972 144.342 C 73.851 144.027,74.444 143.688,75.647 143.385 C 91.079 139.499,99.282 123.895,92.691 110.964 C 90.849 107.349,91.250 107.403,86.133 110.078 M308.631 108.831 C 299.793 120.066,307.199 137.289,323.242 142.808 C 324.961 143.399,326.412 143.912,326.466 143.948 C 326.520 143.983,326.235 144.972,325.831 146.144 C 321.440 158.907,327.528 174.446,339.325 180.584 C 346.160 184.140,347.895 189.748,344.248 196.486 C 336.789 210.265,340.826 227.341,353.422 235.292 C 355.667 236.710,355.566 236.772,357.571 232.715 C 377.598 192.191,355.863 130.974,313.971 109.920 C 309.054 107.448,309.626 107.565,308.631 108.831 M155.078 130.956 C 143.503 134.803,145.336 148.629,157.422 148.631 C 167.503 148.633,173.357 142.327,169.651 135.458 C 167.013 130.569,161.431 128.844,155.078 130.956 M235.291 131.230 C 227.316 135.263,228.086 144.356,236.688 147.722 C 244.665 150.843,253.125 147.112,253.125 140.473 C 253.125 133.057,242.532 127.567,235.291 131.230 " stroke="none" fill="#fbd454" fill-rule="evenodd"></path><path id="path2" d="M0.000 200.000 L 0.000 400.000 200.000 400.000 L 400.000 400.000 400.000 200.000 L 400.000 0.000 200.000 0.000 L 0.000 0.000 0.000 200.000 M123.495 95.632 C 130.032 97.382,135.190 100.259,140.059 104.872 L 142.773 107.445 147.505 105.693 C 181.698 93.034,220.383 92.932,253.052 105.418 L 258.008 107.312 260.870 104.605 C 284.819 81.956,331.983 98.983,356.858 139.258 C 374.852 168.393,378.543 208.024,365.785 235.117 C 354.266 259.582,325.579 267.938,307.673 252.045 C 305.874 250.449,305.898 250.429,304.179 254.909 C 288.478 295.824,234.502 318.977,175.903 309.934 C 136.441 303.845,105.839 282.154,95.669 253.066 L 94.761 250.468 92.791 252.139 C 74.379 267.757,46.185 259.480,34.797 235.113 C 20.320 204.138,26.899 160.079,50.586 129.375 C 69.912 104.323,101.441 89.731,123.495 95.632 M284.694 103.173 C 276.211 103.735,269.197 107.345,264.181 113.730 C 261.097 117.655,260.665 117.723,254.510 115.254 C 249.304 113.165,240.632 114.130,225.391 118.494 C 205.496 124.189,194.673 124.111,175.822 118.135 C 162.087 113.780,153.152 112.902,146.799 115.281 C 140.528 117.631,140.092 117.548,136.304 113.283 C 129.710 105.857,122.152 102.865,110.938 103.242 C 103.968 103.476,94.755 105.547,91.366 107.642 C 91.218 107.734,91.782 109.171,92.620 110.838 C 99.265 124.060,91.234 139.460,75.647 143.385 C 74.444 143.688,73.851 144.027,73.972 144.342 C 79.149 157.833,73.823 173.452,61.785 180.083 C 54.268 184.224,52.566 189.518,56.366 196.937 C 63.795 211.443,59.301 228.215,45.852 236.177 C 43.963 237.295,52.376 245.250,58.789 248.408 C 70.402 254.128,80.744 252.416,89.733 243.287 L 92.162 240.820 91.563 237.109 C 90.229 228.852,90.519 209.516,92.019 206.596 C 93.340 204.024,97.112 203.872,98.937 206.317 C 99.693 207.329,99.702 207.586,99.240 214.827 C 97.124 248.005,109.389 271.791,136.768 287.610 C 174.086 309.171,233.840 307.892,268.891 284.783 C 293.207 268.751,304.071 244.237,301.186 211.914 C 300.575 205.073,304.889 201.607,308.237 206.250 C 309.967 208.650,310.509 224.970,309.202 235.330 L 308.465 241.168 311.595 244.119 C 323.993 255.811,341.826 253.836,353.209 239.511 L 355.493 236.637 353.663 235.477 C 340.809 227.325,336.717 210.395,344.239 196.484 C 347.889 189.735,346.160 184.141,339.325 180.584 C 327.509 174.436,321.433 158.928,325.831 146.144 C 326.235 144.972,326.520 143.983,326.466 143.948 C 326.412 143.912,324.961 143.399,323.242 142.808 C 307.376 137.350,300.181 121.397,308.215 109.492 L 309.349 107.812 307.978 107.239 C 300.417 104.080,292.325 102.667,284.694 103.173 M166.100 123.041 C 178.606 126.904,182.940 141.028,174.376 150.007 C 166.131 158.651,150.049 159.014,143.245 150.710 C 131.944 136.918,148.019 117.456,166.100 123.041 M245.861 123.037 C 267.937 128.683,265.352 156.641,242.754 156.641 C 224.352 156.641,214.849 138.908,227.105 127.442 C 232.244 122.635,238.523 121.161,245.861 123.037 M146.233 167.806 C 162.131 171.905,167.330 191.506,155.665 203.367 C 144.242 214.983,125.009 210.294,120.220 194.727 C 115.413 179.099,130.296 163.697,146.233 167.806 M266.992 168.547 C 281.775 174.438,285.934 192.595,275.003 203.516 C 261.582 216.922,238.672 207.568,238.672 188.683 C 238.672 173.681,253.472 163.158,266.992 168.547 M142.258 177.979 C 136.150 181.092,138.364 190.625,145.194 190.625 C 152.078 190.625,154.662 182.521,149.102 178.370 C 147.666 177.297,144.005 177.088,142.258 177.979 M252.520 177.893 C 248.110 179.814,247.245 186.660,251.068 189.378 C 257.617 194.035,265.464 186.448,260.834 179.935 C 259.259 177.719,255.205 176.724,252.520 177.893 M203.874 184.394 C 221.118 186.556,238.340 204.217,248.416 230.071 C 261.211 262.902,245.125 288.154,208.604 292.569 C 169.496 297.296,140.779 271.917,149.108 239.987 C 156.484 211.709,177.542 186.813,196.117 184.409 C 199.735 183.941,200.251 183.940,203.874 184.394 M177.446 203.028 C 161.360 220.111,151.027 245.230,154.502 258.805 C 163.414 293.615,230.420 296.602,244.613 262.821 C 248.655 253.201,247.033 241.685,239.478 226.367 C 232.952 213.136,219.141 195.717,219.141 200.718 C 219.141 206.606,205.871 220.000,200.037 220.000 C 193.966 220.000,183.803 210.085,181.295 201.717 L 180.664 199.610 177.446 203.028 M202.860 230.484 C 205.288 232.393,212.500 243.780,212.500 245.703 C 212.500 249.815,210.052 250.869,200.521 250.857 C 186.193 250.840,184.696 248.639,191.814 238.058 C 197.547 229.537,199.743 228.032,202.860 230.484 " stroke="none" fill="#fbfbf7" fill-rule="evenodd"></path><path id="path3" d="M194.048 96.370 C 194.533 96.463,195.237 96.460,195.610 96.362 C 195.983 96.264,195.586 96.188,194.727 96.192 C 193.867 96.197,193.562 96.277,194.048 96.370 M205.957 96.363 C 206.333 96.461,206.948 96.461,207.324 96.363 C 207.700 96.265,207.393 96.184,206.641 96.184 C 205.889 96.184,205.581 96.265,205.957 96.363 M111.230 103.017 C 111.929 103.104,113.071 103.104,113.770 103.017 C 114.468 102.930,113.896 102.859,112.500 102.859 C 111.104 102.859,110.532 102.930,111.230 103.017 M285.650 103.015 C 286.244 103.104,287.123 103.102,287.603 103.009 C 288.083 102.917,287.598 102.843,286.523 102.846 C 285.449 102.849,285.056 102.925,285.650 103.015 M140.430 105.469 C 141.269 106.328,142.043 107.031,142.151 107.031 C 142.258 107.031,141.659 106.328,140.820 105.469 C 139.981 104.609,139.207 103.906,139.099 103.906 C 138.992 103.906,139.591 104.609,140.430 105.469 M221.583 139.258 C 221.587 140.117,221.667 140.423,221.761 139.937 C 221.854 139.451,221.851 138.748,221.753 138.374 C 221.655 138.001,221.579 138.398,221.583 139.258 M274.609 173.633 C 275.338 174.385,276.022 175.000,276.130 175.000 C 276.237 175.000,275.729 174.385,275.000 173.633 C 274.271 172.881,273.587 172.266,273.480 172.266 C 273.372 172.266,273.881 172.881,274.609 173.633 M199.322 184.265 C 199.916 184.354,200.794 184.352,201.275 184.259 C 201.755 184.167,201.270 184.093,200.195 184.096 C 199.121 184.099,198.728 184.175,199.322 184.265 M119.247 188.672 C 119.247 189.639,119.323 190.034,119.416 189.551 C 119.509 189.067,119.509 188.276,119.416 187.793 C 119.323 187.310,119.247 187.705,119.247 188.672 M373.145 201.758 C 373.150 202.617,373.230 202.923,373.323 202.437 C 373.417 201.951,373.413 201.248,373.315 200.874 C 373.217 200.501,373.141 200.898,373.145 201.758 M139.551 210.035 C 139.927 210.133,140.542 210.133,140.918 210.035 C 141.294 209.937,140.986 209.856,140.234 209.856 C 139.482 209.856,139.175 209.937,139.551 210.035 M259.473 210.035 C 259.849 210.133,260.464 210.133,260.840 210.035 C 261.216 209.937,260.908 209.856,260.156 209.856 C 259.404 209.856,259.097 209.937,259.473 210.035 M189.453 214.258 C 190.182 215.010,190.866 215.625,190.974 215.625 C 191.081 215.625,190.573 215.010,189.844 214.258 C 189.115 213.506,188.431 212.891,188.323 212.891 C 188.216 212.891,188.724 213.506,189.453 214.258 M309.912 222.461 C 309.913 224.824,309.977 225.741,310.055 224.497 C 310.132 223.254,310.132 221.321,310.053 220.201 C 309.974 219.080,309.911 220.098,309.912 222.461 M98.919 227.344 C 98.919 228.096,98.999 228.403,99.097 228.027 C 99.196 227.651,99.196 227.036,99.097 226.660 C 98.999 226.284,98.919 226.592,98.919 227.344 M197.814 240.526 C 196.545 242.407,195.449 244.077,195.378 244.238 C 195.306 244.399,197.465 244.531,200.177 244.531 C 205.854 244.531,205.637 244.995,202.238 240.135 L 200.119 237.106 197.814 240.526 M89.823 243.262 L 88.477 244.727 89.941 243.380 C 91.305 242.127,91.586 241.797,91.288 241.797 C 91.222 241.797,90.563 242.456,89.823 243.262 M153.637 252.148 C 153.639 253.437,153.712 253.918,153.799 253.216 C 153.886 252.514,153.884 251.459,153.795 250.872 C 153.706 250.285,153.634 250.859,153.637 252.148 M193.262 303.010 C 193.745 303.103,194.536 303.103,195.020 303.010 C 195.503 302.917,195.107 302.841,194.141 302.841 C 193.174 302.841,192.778 302.917,193.262 303.010 " stroke="none" fill="#c3af99" fill-rule="evenodd"></path><path id="path4" d="M198.340 96.383 C 199.683 96.459,201.880 96.459,203.223 96.383 C 204.565 96.307,203.467 96.244,200.781 96.244 C 198.096 96.244,196.997 96.307,198.340 96.383 M208.891 104.964 C 209.377 105.057,210.080 105.054,210.454 104.956 C 210.827 104.858,210.430 104.782,209.570 104.786 C 208.711 104.790,208.405 104.870,208.891 104.964 M59.354 119.434 L 58.008 120.898 59.473 119.552 C 60.836 118.299,61.117 117.969,60.819 117.969 C 60.754 117.969,60.094 118.628,59.354 119.434 M65.421 125.098 L 62.305 128.320 65.527 125.204 C 67.300 123.491,68.750 122.041,68.750 121.982 C 68.750 121.697,68.314 122.105,65.421 125.098 M254.688 127.466 C 254.688 127.533,255.259 128.104,255.957 128.736 L 257.227 129.883 256.079 128.613 C 255.010 127.430,254.688 127.164,254.688 127.466 M178.627 139.258 C 178.630 140.332,178.706 140.725,178.796 140.131 C 178.886 139.538,178.883 138.659,178.791 138.178 C 178.698 137.698,178.624 138.184,178.627 139.258 M244.702 173.535 L 243.555 174.805 244.824 173.657 C 245.522 173.026,246.094 172.455,246.094 172.388 C 246.094 172.086,245.771 172.352,244.702 173.535 M138.372 183.984 C 138.372 184.736,138.452 185.044,138.551 184.668 C 138.649 184.292,138.649 183.677,138.551 183.301 C 138.452 182.925,138.372 183.232,138.372 183.984 M280.966 188.672 C 280.966 189.639,281.042 190.034,281.135 189.551 C 281.228 189.067,281.228 188.276,281.135 187.793 C 281.042 187.310,280.966 187.705,280.966 188.672 M194.213 192.198 C 186.709 194.164,185.627 196.167,188.727 202.361 C 190.510 205.923,196.097 212.097,198.766 213.455 C 202.714 215.464,214.435 201.134,213.122 195.904 C 212.301 192.633,201.005 190.418,194.213 192.198 M226.758 196.484 C 228.033 197.773,229.165 198.828,229.272 198.828 C 229.380 198.828,228.424 197.773,227.148 196.484 C 225.873 195.195,224.741 194.141,224.634 194.141 C 224.526 194.141,225.482 195.195,226.758 196.484 M373.181 197.461 C 373.182 199.180,373.251 199.834,373.333 198.915 C 373.416 197.997,373.415 196.590,373.331 195.790 C 373.247 194.990,373.179 195.742,373.181 197.461 M35.638 201.953 C 35.638 202.705,35.718 203.013,35.816 202.637 C 35.914 202.261,35.914 201.646,35.816 201.270 C 35.718 200.894,35.638 201.201,35.638 201.953 M222.852 202.344 C 223.691 203.203,224.465 203.906,224.573 203.906 C 224.680 203.906,224.081 203.203,223.242 202.344 C 222.403 201.484,221.629 200.781,221.521 200.781 C 221.414 200.781,222.012 201.484,222.852 202.344 M301.713 222.266 C 301.713 224.951,301.775 226.050,301.852 224.707 C 301.928 223.364,301.928 221.167,301.852 219.824 C 301.775 218.481,301.713 219.580,301.713 222.266 M310.531 243.457 C 311.488 244.478,312.323 245.313,312.386 245.313 C 312.679 245.313,312.369 244.962,310.645 243.343 L 308.789 241.602 310.531 243.457 M204.859 244.102 C 205.084 244.466,203.966 244.548,200.036 244.456 C 197.223 244.390,194.921 244.468,194.921 244.629 C 194.922 244.790,197.295 244.922,200.195 244.922 C 205.073 244.922,206.256 244.673,205.018 243.908 C 204.731 243.731,204.673 243.801,204.859 244.102 M162.891 273.633 C 163.619 274.385,164.304 275.000,164.411 275.000 C 164.518 275.000,164.010 274.385,163.281 273.633 C 162.552 272.881,161.868 272.266,161.761 272.266 C 161.653 272.266,162.162 272.881,162.891 273.633 M281.042 275.098 L 278.711 277.539 281.152 275.208 C 282.495 273.925,283.594 272.827,283.594 272.766 C 283.594 272.478,283.208 272.830,281.042 275.098 M203.613 292.847 C 203.989 292.946,204.604 292.946,204.980 292.847 C 205.356 292.749,205.049 292.669,204.297 292.669 C 203.545 292.669,203.237 292.749,203.613 292.847 M191.504 311.597 C 191.880 311.696,192.495 311.696,192.871 311.597 C 193.247 311.499,192.939 311.419,192.188 311.419 C 191.436 311.419,191.128 311.499,191.504 311.597 M208.301 311.597 C 208.677 311.696,209.292 311.696,209.668 311.597 C 210.044 311.499,209.736 311.419,208.984 311.419 C 208.232 311.419,207.925 311.499,208.301 311.597 " stroke="none" fill="#9d7a7c" fill-rule="evenodd"></path></g></svg>